<svg width="20" height="20" viewBox="0 0 20 20" fill="none" xmlns="http://www.w3.org/2000/svg">
<rect width="20" height="20" rx="10" fill="white"/>
<path d="M6.87376 14V5.27273H10.3169C10.9789 5.27273 11.5428 5.39915 12.0087 5.65199C12.4746 5.90199 12.8297 6.25 13.074 6.69602C13.3212 7.1392 13.4448 7.65057 13.4448 8.23011C13.4448 8.80966 13.3198 9.32102 13.0698 9.7642C12.8198 10.2074 12.4576 10.5526 11.9831 10.7997C11.5115 11.0469 10.9405 11.1705 10.2701 11.1705H8.07546V9.69176H9.97177C10.3269 9.69176 10.6195 9.63068 10.8496 9.50852C11.0826 9.38352 11.2559 9.21165 11.3695 8.9929C11.486 8.77131 11.5442 8.51705 11.5442 8.23011C11.5442 7.94034 11.486 7.6875 11.3695 7.47159C11.2559 7.25284 11.0826 7.08381 10.8496 6.96449C10.6167 6.84233 10.3212 6.78125 9.96325 6.78125H8.71893V14H6.87376Z" fill="#0037FF"/>
<circle cx="12" cy="13" r="1" fill="black"/>
</svg>
